<svg xmlns="http://www.w3.org/2000/svg" xmlns:xlink="http://www.w3.org/1999/xlink" version="1.1" x="0px" y="0px" viewBox="0 0 50 50" enable-background="new 0 0 50 50" xml:space="preserve"><path d="M43.816,20.821c-2.32-2.323-5.461-3.551-9.082-3.551c-1.118,0-2.244,0.132-3.365,0.361C31.159,7.867,24.806,0,17.009,0  C9.081,0,2.631,8.13,2.631,18.124c0,9.029,5.138,16.5,12.098,17.879c-0.338,3.981,0.771,7.758,3.463,10.446c0,0,0,0,0.001,0.001l0,0  h0c2.32,2.322,5.459,3.55,9.08,3.55c4.89,0,9.956-2.26,13.9-6.2c3.389-3.395,5.545-7.628,6.073-11.92  C47.786,27.493,46.567,23.564,43.816,20.821z M29.389,18.124c0,0.008,0,0.016,0,0.024c-3.083,0.997-6.046,2.815-8.555,5.32  c-0.53,0.53-1.015,1.083-1.478,1.647c0.017-0.4,0.028-0.819,0.028-1.285c0-3.085-0.75-4.642-1.474-6.147  c-0.656-1.361-1.275-2.647-1.275-5.271c0-2.731,0.32-4.061,0.659-5.467c0.307-1.275,0.623-2.588,0.698-4.88  C24.359,2.721,29.389,9.665,29.389,18.124z M4.631,18.124c0-8.442,5.01-15.377,11.359-16.056c-0.072,2.039-0.348,3.198-0.64,4.409  c-0.352,1.459-0.715,2.967-0.715,5.936c0,3.08,0.749,4.635,1.473,6.139c0.656,1.363,1.276,2.65,1.276,5.279  c0,2.644-0.312,3.998-0.595,5.177c-0.842,1.64-1.444,3.331-1.787,5.015C9.119,32.758,4.631,26.005,4.631,18.124z M16.796,35.312  c0.001-0.008,0.005-0.014,0.006-0.021c0-0.004-0.001-0.007-0.001-0.01c0.525-3.58,2.37-7.318,5.446-10.399  c3.572-3.566,8.123-5.612,12.487-5.612c2.694,0,5.062,0.785,6.909,2.281c-1.495,1.395-2.509,2.018-3.569,2.669  c-1.276,0.783-2.597,1.593-4.698,3.696c-2.181,2.182-2.754,3.811-3.308,5.385c-0.502,1.426-0.977,2.773-2.834,4.631  c-1.933,1.931-3.098,2.645-4.332,3.4c-1.119,0.685-2.271,1.391-3.946,2.962C17.002,41.894,16.31,38.677,16.796,35.312z   M45.262,31.636c-0.474,3.852-2.428,7.67-5.503,10.751C36.188,45.954,31.637,48,27.273,48c-2.695,0-5.062-0.785-6.91-2.282  c1.5-1.402,2.518-2.028,3.583-2.681c1.279-0.783,2.601-1.593,4.702-3.691c2.18-2.179,2.752-3.807,3.307-5.381  c0.502-1.427,0.977-2.774,2.835-4.635c1.935-1.936,3.099-2.649,4.33-3.405c1.114-0.683,2.263-1.387,3.934-2.952  C44.89,25.223,45.677,28.255,45.262,31.636z"></path></svg>