<?xml version="1.0" encoding="UTF-8"?>
<svg width="1200pt" height="1200pt" version="1.1" viewBox="0 0 1200 1200" xmlns="http://www.w3.org/2000/svg">
 <path d="m1051.6 499.7c-55.68-55.754-131.06-85.223-217.97-85.223-26.832 0-53.855 3.168-80.762 8.6641-5.0391-234.34-157.51-423.14-344.64-423.14-190.27 0-345.07 195.12-345.07 434.98 0 216.7 123.31 396 290.35 429.1-8.1133 95.543 18.504 186.19 83.113 250.7l0.023437 0.023437c55.68 55.727 131.02 85.199 217.92 85.199 117.36 0 238.95-54.238 333.6-148.8 81.336-81.48 133.08-183.07 145.75-286.08 12.953-105.29-16.301-199.59-82.324-265.42zm-346.25-64.727v0.57422c-73.992 23.93-145.11 67.559-205.32 127.68-12.719 12.719-24.359 25.992-35.473 39.527 0.40625-9.6016 0.67188-19.656 0.67188-30.84 0-74.039-18-111.41-35.375-147.53-15.742-32.664-30.602-63.527-30.602-126.5 0-65.543 7.6797-97.465 15.816-131.21 7.3672-30.602 14.953-62.113 16.754-117.12 152.81 15.746 273.53 182.4 273.53 385.42zm-594.19 0c0-202.61 120.24-369.05 272.62-385.34-1.7266 48.938-8.3516 76.754-15.359 105.82-8.4492 35.016-17.16 71.207-17.16 142.46 0 73.922 17.977 111.24 35.352 147.34 15.742 32.711 30.625 63.602 30.625 126.7 0 63.457-7.4883 95.953-14.281 124.25-20.207 39.359-34.656 79.945-42.887 120.36-141.2-30.359-248.91-192.43-248.91-381.57zm291.96 412.51c0.023437-0.19141 0.12109-0.33594 0.14453-0.50391 0-0.097656-0.023438-0.16797-0.023438-0.23828 12.602-85.922 56.879-175.63 130.7-249.57 85.727-85.586 194.95-134.69 299.69-134.69 64.656 0 121.49 18.84 165.82 54.742-35.879 33.48-60.215 48.434-85.656 64.055-30.625 18.793-62.328 38.23-112.75 88.703-52.344 52.367-66.098 91.465-79.391 129.24-12.047 34.223-23.449 66.551-68.016 111.14-46.391 46.344-74.352 63.48-103.97 81.602-26.855 16.441-54.504 33.383-94.703 71.09-46.898-57.602-63.504-134.81-51.84-215.57zm683.18-88.223c-11.375 92.449-58.273 184.08-132.07 258.02-85.707 85.605-194.93 134.71-299.67 134.71-64.68 0-121.49-18.84-165.84-54.77 36-33.648 60.434-48.672 85.992-64.344 30.695-18.793 62.426-38.23 112.85-88.586 52.32-52.297 66.047-91.367 79.367-129.14 12.047-34.246 23.449-66.574 68.039-111.24 46.441-46.465 74.375-63.574 103.92-81.719 26.734-16.391 54.312-33.289 94.414-70.848 44.066 54 62.953 126.77 52.996 207.91z" fill="#fff"/>
</svg>
