<svg xmlns="http://www.w3.org/2000/svg" xmlns:xlink="http://www.w3.org/1999/xlink" version="1.1" x="0px" y="0px" viewBox="0 0 16 16" style="enable-background:new 0 0 16 16;" xml:space="preserve"><g><path d="M14.5,16h-4c-0.276,0-0.5-0.224-0.5-0.5V7.444c0-0.694,0.164-1.39,0.475-2.012l1.578-3.155c0.17-0.339,0.725-0.339,0.895,0   l1.578,3.155C14.836,6.054,15,6.75,15,7.444V15.5C15,15.776,14.776,16,14.5,16z M11,15h3V7.444c0-0.54-0.128-1.082-0.369-1.566   L12.5,3.618l-1.131,2.261C11.128,6.362,11,6.904,11,7.444V15z"></path><path d="M10.5,16h-8C2.224,16,2,15.776,2,15.5V7.444c0-0.693,0.164-1.389,0.474-2.012l1.579-3.156   C4.177,2.029,4.476,1.93,4.724,2.053c0.247,0.124,0.347,0.424,0.224,0.671L3.369,5.878C3.128,6.363,3,6.905,3,7.444V15h7.5   c0.276,0,0.5,0.224,0.5,0.5S10.776,16,10.5,16z"></path><path d="M12.5,3C12.224,3,12,2.776,12,2.5V1H5v1.5C5,2.776,4.776,3,4.5,3S4,2.776,4,2.5v-2C4,0.224,4.224,0,4.5,0h8   C12.776,0,13,0.224,13,0.5v2C13,2.776,12.776,3,12.5,3z"></path><g><path d="M6.5,14C5.122,14,4,12.654,4,11s1.122-3,2.5-3S9,9.346,9,11S7.878,14,6.5,14z M6.5,9C5.673,9,5,9.897,5,11s0.673,2,1.5,2    S8,12.103,8,11S7.327,9,6.5,9z"></path><path d="M6.5,14c-0.065,0-0.132-0.013-0.195-0.04c-0.254-0.107-0.373-0.401-0.266-0.655c0.154-0.365,0.463-1.438,0.053-2.015    C5.286,10.158,5.96,8.49,6.04,8.304C6.148,8.05,6.443,7.933,6.695,8.04C6.949,8.147,7.067,8.441,6.96,8.695    c-0.154,0.365-0.463,1.438-0.053,2.015c0.807,1.132,0.132,2.8,0.053,2.986C6.879,13.886,6.694,14,6.5,14z"></path></g></g></svg>