<?xml version="1.0" encoding="UTF-8"?>
<svg width="1200pt" height="1200pt" version="1.1" viewBox="0 0 1200 1200" xmlns="http://www.w3.org/2000/svg">
 <g fill="#fff">
  <path d="m1087.5 1200h-300c-20.699 0-37.5-16.801-37.5-37.5v-604.2c0-52.051 12.301-104.25 35.625-150.9l118.35-236.62c12.75-25.426 54.375-25.426 67.125 0l118.35 236.62c23.246 46.648 35.547 98.848 35.547 150.9v604.2c0 20.699-16.801 37.5-37.5 37.5zm-262.5-75h225v-566.7c0-40.5-9.6016-81.148-27.676-117.45l-84.824-169.5-84.824 169.57c-18.074 36.223-27.676 76.875-27.676 117.38z"/>
  <path d="m787.5 1200h-600c-20.699 0-37.5-16.801-37.5-37.5v-604.2c0-51.977 12.301-104.18 35.551-150.9l118.43-236.7c9.2969-18.527 31.723-25.953 50.324-16.727 18.523 9.3008 26.023 31.801 16.801 50.324l-118.43 236.55c-18.074 36.375-27.676 77.023-27.676 117.45v566.7h562.5c20.699 0 37.5 16.801 37.5 37.5s-16.801 37.5-37.5 37.5z"/>
  <path d="m937.5 225c-20.699 0-37.5-16.801-37.5-37.5v-112.5h-525v112.5c0 20.699-16.801 37.5-37.5 37.5s-37.5-16.801-37.5-37.5v-150c0-20.699 16.801-37.5 37.5-37.5h600c20.699 0 37.5 16.801 37.5 37.5v150c0 20.699-16.801 37.5-37.5 37.5z"/>
  <path d="m487.5 1050c-103.35 0-187.5-100.95-187.5-225s84.148-225 187.5-225 187.5 100.95 187.5 225-84.148 225-187.5 225zm0-375c-62.023 0-112.5 67.273-112.5 150s50.477 150 112.5 150 112.5-67.273 112.5-150-50.477-150-112.5-150z"/>
  <path d="m487.5 1050c-4.875 0-9.8984-0.97656-14.625-3-19.051-8.0234-27.977-30.074-19.949-49.125 11.551-27.375 34.727-107.85 3.9766-151.12-60.453-84.898-9.9023-210-3.9023-223.95 8.1016-19.051 30.227-27.824 49.125-19.801 19.051 8.0234 27.898 30.074 19.875 49.125-11.551 27.375-34.727 107.85-3.9766 151.12 60.523 84.898 9.8984 210 3.9766 223.95-6.0742 14.25-19.949 22.801-34.5 22.801z"/>
 </g>
</svg>
